<?xml version="1.0" encoding="utf-8"?>
<!-- Svg Vector Icons : http://www.onlinewebfonts.com/icon -->
<!DOCTYPE svg PUBLIC "-//W3C//DTD SVG 1.1//EN" "http://www.w3.org/Graphics/SVG/1.1/DTD/svg11.dtd">
<svg version="1.1" xmlns="http://www.w3.org/2000/svg" xmlns:xlink="http://www.w3.org/1999/xlink" x="0px" y="0px" viewBox="0 0 1000 1000" enable-background="new 0 0 1000 1000" xml:space="preserve">
<metadata> Svg Vector Icons : http://www.onlinewebfonts.com/icon </metadata>
<g><g><path d="M913.4,124.8h-15.3V94.2c0-25.3-20.6-45.9-45.9-45.9s-45.9,20.6-45.9,45.9v30.6H193.8V94.2c0-25.3-20.6-45.9-45.9-45.9s-45.9,20.6-45.9,45.9v30.6H86.6c-42.2,0-76.6,34.3-76.6,76.6v673.8c0,42.2,34.3,76.6,76.6,76.6h826.9c42.2,0,76.6-34.3,76.6-76.6V201.4C990,159.2,955.7,124.8,913.4,124.8z M836.9,94.2c0-8.4,6.9-15.3,15.3-15.3s15.3,6.9,15.3,15.3v45.9c0,0,0,0,0,0s0,0,0,0v45.9c0,8.4-6.9,15.3-15.3,15.3s-15.3-6.9-15.3-15.3V94.2z M147.8,78.9c8.4,0,15.3,6.9,15.3,15.3v91.9c0,8.4-6.9,15.3-15.3,15.3s-15.3-6.9-15.3-15.3v-45.9c0,0,0,0,0,0s0,0,0,0V94.2C132.5,85.8,139.4,78.9,147.8,78.9z M913.4,921.1H86.6c-25.3,0-45.9-20.6-45.9-45.9V293.3h735c8.5,0,15.3-6.9,15.3-15.3c0-8.5-6.9-15.3-15.3-15.3h-735v-61.3c0-25.3,20.6-45.9,45.9-45.9h15.3v30.6c0,25.3,20.6,45.9,45.9,45.9s45.9-20.6,45.9-45.9v-30.6h612.5v30.6c0,25.3,20.6,45.9,45.9,45.9s45.9-20.6,45.9-45.9v-30.6h15.3c25.3,0,45.9,20.6,45.9,45.9v61.3h-30.6c-8.5,0-15.3,6.9-15.3,15.3c0,8.5,6.9,15.3,15.3,15.3h30.6v581.9C959.4,900.5,938.8,921.1,913.4,921.1z"/><path d="M867.5,262.7h-30.6c-8.5,0-15.3,6.9-15.3,15.3c0,8.5,6.9,15.3,15.3,15.3h30.6c8.5,0,15.3-6.9,15.3-15.3C882.8,269.5,876,262.7,867.5,262.7z"/><path d="M515.3,400.5h-30.6c-8.5,0-15.3,6.9-15.3,15.3c0,8.5,6.9,15.3,15.3,15.3h30.6c8.5,0,15.3-6.9,15.3-15.3C530.6,407.3,523.8,400.5,515.3,400.5z"/><path d="M515.3,477h-30.6c-8.5,0-15.3,6.9-15.3,15.3c0,8.5,6.9,15.3,15.3,15.3h30.6c8.5,0,15.3-6.9,15.3-15.3C530.6,483.9,523.8,477,515.3,477z"/><path d="M515.3,553.6h-30.6c-8.5,0-15.3,6.9-15.3,15.3s6.9,15.3,15.3,15.3h30.6c8.5,0,15.3-6.9,15.3-15.3S523.8,553.6,515.3,553.6z"/><path d="M515.3,630.2h-30.6c-8.5,0-15.3,6.9-15.3,15.3s6.9,15.3,15.3,15.3h30.6c8.5,0,15.3-6.9,15.3-15.3S523.8,630.2,515.3,630.2z"/><path d="M515.3,706.7h-30.6c-8.5,0-15.3,6.9-15.3,15.3s6.9,15.3,15.3,15.3h30.6c8.5,0,15.3-6.9,15.3-15.3S523.8,706.7,515.3,706.7z"/><path d="M515.3,783.3h-30.6c-8.5,0-15.3,6.9-15.3,15.3s6.9,15.3,15.3,15.3h30.6c8.5,0,15.3-6.9,15.3-15.3S523.8,783.3,515.3,783.3z"/><path d="M622.5,400.5h-30.6c-8.5,0-15.3,6.9-15.3,15.3c0,8.5,6.9,15.3,15.3,15.3h30.6c8.5,0,15.3-6.9,15.3-15.3C637.8,407.3,631,400.5,622.5,400.5z"/><path d="M622.5,477h-30.6c-8.5,0-15.3,6.9-15.3,15.3c0,8.5,6.9,15.3,15.3,15.3h30.6c8.5,0,15.3-6.9,15.3-15.3C637.8,483.9,631,477,622.5,477z"/><path d="M622.5,553.6h-30.6c-8.5,0-15.3,6.9-15.3,15.3s6.9,15.3,15.3,15.3h30.6c8.5,0,15.3-6.9,15.3-15.3S631,553.6,622.5,553.6z"/><path d="M622.5,630.2h-30.6c-8.5,0-15.3,6.9-15.3,15.3s6.9,15.3,15.3,15.3h30.6c8.5,0,15.3-6.9,15.3-15.3S631,630.2,622.5,630.2z"/><path d="M622.5,706.7h-30.6c-8.5,0-15.3,6.9-15.3,15.3s6.9,15.3,15.3,15.3h30.6c8.5,0,15.3-6.9,15.3-15.3S631,706.7,622.5,706.7z"/><path d="M622.5,783.3h-30.6c-8.5,0-15.3,6.9-15.3,15.3s6.9,15.3,15.3,15.3h30.6c8.5,0,15.3-6.9,15.3-15.3S631,783.3,622.5,783.3z"/><path d="M408.1,400.5h-30.6c-8.5,0-15.3,6.9-15.3,15.3c0,8.5,6.9,15.3,15.3,15.3h30.6c8.5,0,15.3-6.9,15.3-15.3C423.4,407.3,416.6,400.5,408.1,400.5z"/><path d="M408.1,477h-30.6c-8.5,0-15.3,6.9-15.3,15.3c0,8.5,6.9,15.3,15.3,15.3h30.6c8.5,0,15.3-6.9,15.3-15.3C423.4,483.9,416.6,477,408.1,477z"/><path d="M408.1,553.6h-30.6c-8.5,0-15.3,6.9-15.3,15.3s6.9,15.3,15.3,15.3h30.6c8.5,0,15.3-6.9,15.3-15.3S416.6,553.6,408.1,553.6z"/><path d="M408.1,630.2h-30.6c-8.5,0-15.3,6.9-15.3,15.3s6.9,15.3,15.3,15.3h30.6c8.5,0,15.3-6.9,15.3-15.3S416.6,630.2,408.1,630.2z"/><path d="M408.1,706.7h-30.6c-8.5,0-15.3,6.9-15.3,15.3s6.9,15.3,15.3,15.3h30.6c8.5,0,15.3-6.9,15.3-15.3S416.6,706.7,408.1,706.7z"/><path d="M408.1,783.3h-30.6c-8.5,0-15.3,6.9-15.3,15.3s6.9,15.3,15.3,15.3h30.6c8.5,0,15.3-6.9,15.3-15.3S416.6,783.3,408.1,783.3z"/><path d="M300.9,400.5h-30.6c-8.5,0-15.3,6.9-15.3,15.3c0,8.5,6.9,15.3,15.3,15.3h30.6c8.5,0,15.3-6.9,15.3-15.3C316.3,407.3,309.4,400.5,300.9,400.5z"/><path d="M300.9,477h-30.6c-8.5,0-15.3,6.9-15.3,15.3c0,8.5,6.9,15.3,15.3,15.3h30.6c8.5,0,15.3-6.9,15.3-15.3C316.3,483.9,309.4,477,300.9,477z"/><path d="M300.9,553.6h-30.6c-8.5,0-15.3,6.9-15.3,15.3s6.9,15.3,15.3,15.3h30.6c8.5,0,15.3-6.9,15.3-15.3S309.4,553.6,300.9,553.6z"/><path d="M300.9,630.2h-30.6c-8.5,0-15.3,6.9-15.3,15.3s6.9,15.3,15.3,15.3h30.6c8.5,0,15.3-6.9,15.3-15.3S309.4,630.2,300.9,630.2z"/><path d="M300.9,706.7h-30.6c-8.5,0-15.3,6.9-15.3,15.3s6.9,15.3,15.3,15.3h30.6c8.5,0,15.3-6.9,15.3-15.3S309.4,706.7,300.9,706.7z"/><path d="M300.9,783.3h-30.6c-8.5,0-15.3,6.9-15.3,15.3s6.9,15.3,15.3,15.3h30.6c8.5,0,15.3-6.9,15.3-15.3S309.4,783.3,300.9,783.3z"/><path d="M729.7,400.5h-30.6c-8.5,0-15.3,6.9-15.3,15.3c0,8.5,6.9,15.3,15.3,15.3h30.6c8.5,0,15.3-6.9,15.3-15.3C745,407.3,738.1,400.5,729.7,400.5z"/><path d="M729.7,477h-30.6c-8.5,0-15.3,6.9-15.3,15.3c0,8.5,6.9,15.3,15.3,15.3h30.6c8.5,0,15.3-6.9,15.3-15.3C745,483.9,738.1,477,729.7,477z"/><path d="M729.7,553.6h-30.6c-8.5,0-15.3,6.9-15.3,15.3s6.9,15.3,15.3,15.3h30.6c8.5,0,15.3-6.9,15.3-15.3S738.1,553.6,729.7,553.6z"/><path d="M729.7,630.2h-30.6c-8.5,0-15.3,6.9-15.3,15.3s6.9,15.3,15.3,15.3h30.6c8.5,0,15.3-6.9,15.3-15.3S738.1,630.2,729.7,630.2z"/><path d="M729.7,706.7h-30.6c-8.5,0-15.3,6.9-15.3,15.3s6.9,15.3,15.3,15.3h30.6c8.5,0,15.3-6.9,15.3-15.3S738.1,706.7,729.7,706.7z"/><path d="M729.7,783.3h-30.6c-8.5,0-15.3,6.9-15.3,15.3s6.9,15.3,15.3,15.3h30.6c8.5,0,15.3-6.9,15.3-15.3S738.1,783.3,729.7,783.3z"/><path d="M836.9,400.5h-30.6c-8.5,0-15.3,6.9-15.3,15.3c0,8.5,6.9,15.3,15.3,15.3h30.6c8.5,0,15.3-6.9,15.3-15.3C852.2,407.3,845.3,400.5,836.9,400.5z"/><path d="M836.9,477h-30.6c-8.5,0-15.3,6.9-15.3,15.3c0,8.5,6.9,15.3,15.3,15.3h30.6c8.5,0,15.3-6.9,15.3-15.3C852.2,483.9,845.3,477,836.9,477z"/><path d="M836.9,553.6h-30.6c-8.5,0-15.3,6.9-15.3,15.3s6.9,15.3,15.3,15.3h30.6c8.5,0,15.3-6.9,15.3-15.3S845.3,553.6,836.9,553.6z"/><path d="M836.9,630.2h-30.6c-8.5,0-15.3,6.9-15.3,15.3s6.9,15.3,15.3,15.3h30.6c8.5,0,15.3-6.9,15.3-15.3S845.3,630.2,836.9,630.2z"/><path d="M836.9,706.7h-30.6c-8.5,0-15.3,6.9-15.3,15.3s6.9,15.3,15.3,15.3h30.6c8.5,0,15.3-6.9,15.3-15.3S845.3,706.7,836.9,706.7z"/><path d="M836.9,783.3h-30.6c-8.5,0-15.3,6.9-15.3,15.3s6.9,15.3,15.3,15.3h30.6c8.5,0,15.3-6.9,15.3-15.3S845.3,783.3,836.9,783.3z"/><path d="M193.8,400.5h-30.6c-8.5,0-15.3,6.9-15.3,15.3c0,8.5,6.9,15.3,15.3,15.3h30.6c8.5,0,15.3-6.9,15.3-15.3C209.1,407.3,202.2,400.5,193.8,400.5z"/><path d="M193.8,477h-30.6c-8.5,0-15.3,6.9-15.3,15.3c0,8.5,6.9,15.3,15.3,15.3h30.6c8.5,0,15.3-6.9,15.3-15.3C209.1,483.9,202.2,477,193.8,477z"/><path d="M193.8,553.6h-30.6c-8.5,0-15.3,6.9-15.3,15.3s6.9,15.3,15.3,15.3h30.6c8.5,0,15.3-6.9,15.3-15.3S202.2,553.6,193.8,553.6z"/><path d="M193.8,630.2h-30.6c-8.5,0-15.3,6.9-15.3,15.3s6.9,15.3,15.3,15.3h30.6c8.5,0,15.3-6.9,15.3-15.3S202.2,630.2,193.8,630.2z"/><path d="M193.8,706.7h-30.6c-8.5,0-15.3,6.9-15.3,15.3s6.9,15.3,15.3,15.3h30.6c8.5,0,15.3-6.9,15.3-15.3S202.2,706.7,193.8,706.7z"/><path d="M193.8,783.3h-30.6c-8.5,0-15.3,6.9-15.3,15.3s6.9,15.3,15.3,15.3h30.6c8.5,0,15.3-6.9,15.3-15.3S202.2,783.3,193.8,783.3z"/></g><g></g><g></g><g></g><g></g><g></g><g></g><g></g><g></g><g></g><g></g><g></g><g></g><g></g><g></g><g></g></g>
</svg>