<?xml version="1.0" encoding="utf-8"?>
<!-- Svg Vector Icons : http://www.onlinewebfonts.com/icon -->
<!DOCTYPE svg PUBLIC "-//W3C//DTD SVG 1.1//EN" "http://www.w3.org/Graphics/SVG/1.1/DTD/svg11.dtd">
<svg version="1.1" xmlns="http://www.w3.org/2000/svg" xmlns:xlink="http://www.w3.org/1999/xlink" x="0px" y="0px" viewBox="0 0 1000 1000" enable-background="new 0 0 1000 1000" xml:space="preserve">
<metadata> Svg Vector Icons : http://www.onlinewebfonts.com/icon </metadata>
<g><g transform="translate(0.000000,512.000000) scale(0.100000,-0.100000)"><path d="M7514.6,4954.9c-72.8-72.7-84.2-147.4-36.4-239.3c38.3-74.7,67-84.2,292.9-97.6l195.3-9.6l-474.7-474.7L7017,3659l-86.2,65.1c-503.5,380.9-1173.5,532.2-1797.5,403.9c-419.2-86.1-777.2-273.7-1089.2-572.4c-447.9-426.9-675.8-936.1-704.5-1575.4c-11.5-218.2-13.4-235.5-51.7-243.1c-369.5-74.7-524.5-122.5-729.3-225.9c-446-224-849.9-650.8-1045.2-1106.5c-250.8-580-250.8-1215.6,0-1795.6c214.4-499.6,660.4-943.7,1169.6-1163.9c141.7-61.3,434.6-141.7,618.3-168.5l70.8-11.5l-3.8-511.1l-5.7-511.1l-254.6-9.6c-250.8-9.6-256.5-9.6-302.5-63.2c-80.4-93.8-51.7-258.4,51.7-312c38.3-19.1,122.5-26.8,285.2-26.8h229.7v-229.7c0-250.8,17.2-314,97.6-356.1c84.2-42.1,162.7-32.5,231.6,28.7l63.2,55.5l5.7,248.9l7.7,248.9l245,7.7c229.7,5.7,248.9,9.6,294.8,51.7c97.6,91.9,76.6,271.8-38.3,325.4c-26.8,11.5-149.3,21-275.7,21h-229.7v516.9v514.9l72.7,11.5c465.2,74.7,800.2,220.1,1144.7,495.8c359.9,289.1,637.5,723.6,752.3,1179.2c51.7,202.9,86.2,513,70.8,647c-11.5,93.8-9.6,99.6,30.6,99.6c65.1,0,296.7,51.7,436.4,97.6c323.5,103.4,593.4,269.9,859.5,524.5c551.3,532.2,792.5,1305.5,641.3,2055.9c-63.2,308.2-233.6,687.2-405.8,897.8l-67,84.2l482.4,480.5l480.5,482.4v-187.6c0-208.7,23-279.5,105.3-315.9c90-42.1,160.8-28.7,231.6,42.1l65.1,65.1v482.4v482.4l-65.1,65.1l-65.1,65.1h-482.4h-482.4L7514.6,4954.9z M6096.2,3691.5c603-179.9,1066.3-641.3,1250-1246.2c49.8-160.8,53.6-195.3,53.6-516.9c0-319.7-3.8-356-51.7-513c-151.2-492-467.1-874.8-918.8-1114.1c-166.5-90-415.4-170.4-587.7-191.4l-105.3-13.4l-34.5,109.1c-93.8,302.5-298.6,639.4-537.9,880.6c-340.7,340.7-744.7,551.3-1225.1,633.6c-95.7,17.2-178,34.5-181.9,38.3c-17.2,15.3-3.8,398.2,17.2,503.5c47.9,239.3,162.7,518.8,292.9,708.3c157,229.7,434.6,470.9,683.4,595.3c306.3,153.1,495.8,193.3,880.6,183.8C5883.7,3743.2,5952.6,3735.5,6096.2,3691.5z M3446.8,1229.7c13.4-47.9,65.1-172.3,116.8-277.6c256.5-536,744.7-964.8,1311.3-1154.3c139.7-47.9,388.6-99.6,470.9-99.6h61.3l-11.5-262.3c-7.7-208.6-19.1-298.6-59.4-432.6c-248.8-836.5-1020.3-1382.1-1876-1328.5c-752.3,47.9-1410.8,553.2-1634.8,1257.7c-67,208.7-88,344.6-88,574.3c0,470.9,155,878.7,469,1232.8c195.2,220.1,545.6,442.2,834.6,526.4c151.2,45.9,354.1,78.5,371.4,61.3C3418.1,1321.6,3433.4,1277.6,3446.8,1229.7z M4023,1285.3c356.1-80.4,740.8-329.2,985.8-639.4c139.8-176.1,314-514.9,268-522.6c-49.8-11.5-361.8,86.1-493.9,151.2c-369.5,187.6-662.3,474.7-836.5,821.2c-97.6,197.2-109.1,235.5-63.2,224C3902.4,1314,3965.6,1298.7,4023,1285.3z"/></g></g>
</svg>