<?xml version="1.0" encoding="utf-8"?>
<!-- Svg Vector Icons : http://www.onlinewebfonts.com/icon -->
<!DOCTYPE svg PUBLIC "-//W3C//DTD SVG 1.1//EN" "http://www.w3.org/Graphics/SVG/1.1/DTD/svg11.dtd">
<svg version="1.1" xmlns="http://www.w3.org/2000/svg" xmlns:xlink="http://www.w3.org/1999/xlink" x="0px" y="0px" viewBox="0 0 1000 1000" enable-background="new 0 0 1000 1000" xml:space="preserve">
<metadata> Svg Vector Icons : http://www.onlinewebfonts.com/icon </metadata>
<g><g transform="translate(0.000000,512.000000) scale(0.100000,-0.100000)"><path d="M4596.6,5000.6c-1026.6-109.2-1967-679.9-2534-1539.9c-293-444.4-484.6-959.6-561.2-1497.8c-42.1-304.5-28.7-814,30.6-1087.9c107.3-507.6,337.1-1017,779.5-1733.4c861.9-1394.3,2497.6-3849.8,2597.2-3901.5c65.1-32.6,187.7-24.9,237.5,17.2c80.4,67,2572.3,3865.1,2842.3,4334.3C8375.5,264,8523,783.1,8523,1459.2c-1.9,808.3-260.5,1562.9-760.4,2216c-155.1,203-522.9,551.6-743.1,704.8C6326.2,4864.6,5439.4,5090.6,4596.6,5000.6z M5563.9,4535.2c331.3-59.4,716.3-199.2,992.1-358.2c367.7-214.5,768-586.1,996-928.9c637.8-959.6,718.2-2127.9,214.5-3135.4c-143.7-287.3-272-498-651.2-1070.7c-178.1-272-450.1-685.7-603.3-919.4C6025.4-2630,5012.3-4152.7,5000.8-4152.7c-17.2,0-1151.1,1704.6-1511.2,2269.6c-166.6,264.3-415.6,651.2-553.5,861.9c-333.3,517.1-616.7,984.5-724,1197.1c-588,1168.3-310.3,2654.6,664.6,3572.1c465.4,438.6,1070.7,718.2,1758.3,814C4815,4586.9,5362.8,4569.7,5563.9,4535.2z"/><path d="M4851.4,2874.6c-383.1-36.4-773.8-247.1-1013.2-549.7c-105.3-132.2-245.2-411.8-285.4-568.9c-178.1-683.8,180-1421.2,837-1721.9C4604.3-63.5,4765.2-98,5008.4-96.1c262.4,0,442.4,46,685.7,170.5c143.7,72.8,208.8,122.6,348.6,264.3c331.3,333.3,463.5,666.5,444.4,1120.4C6450.6,2324.9,5720.9,2955.1,4851.4,2874.6z M5353.2,2363.2c356.3-130.2,626.3-461.6,683.8-833.2c72.8-482.7-206.9-963.4-664.6-1135.8c-176.2-67-444.4-84.3-616.7-38.3c-367.7,93.8-670.4,390.7-773.8,758.5c-36.4,136-28.7,429,19.2,576.5c103.4,325.6,394.6,603.3,735.5,697.2C4883.9,2430.2,5205.7,2416.8,5353.2,2363.2z"/></g></g>
</svg>