<?xml version="1.0" encoding="utf-8"?>
<!-- Svg Vector Icons : http://www.onlinewebfonts.com/icon -->
<!DOCTYPE svg PUBLIC "-//W3C//DTD SVG 1.1//EN" "http://www.w3.org/Graphics/SVG/1.1/DTD/svg11.dtd">
<svg version="1.1" xmlns="http://www.w3.org/2000/svg" xmlns:xlink="http://www.w3.org/1999/xlink" x="0px" y="0px" viewBox="0 0 1000 1000" enable-background="new 0 0 1000 1000" xml:space="preserve">
<metadata> Svg Vector Icons : http://www.onlinewebfonts.com/icon </metadata>
<g><path d="M984.1,960.5L718,694.5c33.3-35.5,59.8-76,78.7-120.8c21.4-50.5,32.2-104.1,32.2-159.4c0-55.3-10.8-108.9-32.2-159.4c-20.6-48.8-50.1-92.5-87.7-130.1C671.4,87.2,627.6,57.7,578.8,37C528.3,15.7,474.7,4.8,419.5,4.8c-55.3,0-108.9,10.8-159.4,32.2c-48.8,20.6-92.5,50.1-130.1,87.7c-37.6,37.6-67.1,81.4-87.7,130.1C20.8,305.4,10,359,10,414.3c0,55.3,10.8,108.9,32.2,159.4c20.6,48.8,50.1,92.5,87.7,130.1c37.6,37.6,81.4,67.1,130.1,87.7c50.5,21.4,104.1,32.2,159.4,32.2c55.3,0,108.9-10.8,159.4-32.2c40.3-17,77.2-40.2,110-68.9l266.6,266.6c4,4,9.2,5.9,14.3,5.9s10.4-2,14.3-5.9C992,981.3,992,968.4,984.1,960.5z M419.5,783.2c-203.4,0-368.9-165.5-368.9-368.9c0-203.4,165.5-368.9,368.9-368.9c203.4,0,368.9,165.5,368.9,368.9C788.3,617.7,622.9,783.2,419.5,783.2z"/></g>
</svg>